<svg width="375" height="433" viewBox="0 0 375 433" fill="none" xmlns="http://www.w3.org/2000/svg">
<path d="M107.827 284.11C107.145 281.165 103.872 279.99 100.603 278.817C98.7062 278.136 96.8105 277.456 95.4241 276.43M107.827 284.11L89.7617 251.76M107.827 284.11C107.947 284.559 108.055 284.991 108.16 285.412C108.764 287.831 109.266 289.842 111.333 292.023M107.827 284.11L111.333 292.023M95.4241 276.43C92.7277 274.568 91.6492 272.008 91.6492 269.215M95.4241 276.43L95.3349 276.551C95.3355 276.551 95.3362 276.552 95.3368 276.552C95.3375 276.553 95.3382 276.553 95.3389 276.553L95.4241 276.43ZM91.6492 269.215C91.541 267.722 91.5196 266.229 91.498 264.721C91.4657 262.468 91.4329 260.181 91.1099 257.811C90.8822 256.043 90.4624 254.441 90.0126 252.724C89.9296 252.407 89.8456 252.087 89.7617 251.76M91.6492 269.215H91.4992C91.4992 269.217 91.4992 269.219 91.4992 269.221C91.4993 269.223 91.4994 269.224 91.4995 269.226L91.6492 269.215ZM89.7617 251.76L89.6164 251.798C89.6166 251.799 89.6168 251.799 89.617 251.8C89.6172 251.801 89.6174 251.801 89.6176 251.802L89.7617 251.76ZM60.9708 232.306C59.4113 231.604 57.7017 231.049 55.9613 230.522C55.5442 230.395 55.1255 230.271 54.7066 230.146C53.374 229.749 52.0392 229.351 50.7473 228.898C47.3507 227.708 44.2903 226.151 42.431 223.285L42.4149 223.261L42.3904 223.244C41.6948 222.763 40.9881 222.575 40.4759 222.606C40.2225 222.622 39.996 222.693 39.8503 222.834C39.7754 222.906 39.7228 222.995 39.7027 223.1C39.6839 223.198 39.6952 223.3 39.7316 223.402C40.0115 225.771 41.3183 227.601 43.0857 229.068C44.8548 230.536 47.0945 231.648 49.2536 232.58C49.498 232.697 49.7394 232.812 49.978 232.925C52.1146 233.941 54.0357 234.854 55.9588 236.514C56.6069 237.073 57.2245 237.69 57.8587 238.323C58.2792 238.743 58.707 239.17 59.1559 239.593C60.273 240.645 61.4998 241.646 63.0035 242.354C66.031 243.779 69.0515 243.06 71.772 241.417C72.5769 240.954 73.071 240.808 73.516 240.91C73.9716 241.015 74.4144 241.387 75.0933 242.09L75.0928 242.09L75.1032 242.099C75.7632 242.669 76.294 243.355 76.7986 244.052C76.8898 244.178 76.9802 244.304 77.0705 244.43C77.4755 244.997 77.877 245.558 78.3235 246.04L60.9708 232.306ZM60.9708 232.306C60.9705 232.306 60.9701 232.306 60.9697 232.306L60.9103 232.444L60.9719 232.307C60.9715 232.307 60.9712 232.307 60.9708 232.306ZM78.9761 346.483C78.1577 347.101 77.3005 347.652 76.4486 348.199C75.0552 349.095 73.6761 349.982 72.5048 351.137C70.3477 353.465 69.2691 356.025 68.1906 358.817C67.9908 359.392 67.7869 360.048 67.5677 360.754C66.012 365.762 63.6864 373.25 56.5961 371.618L79.785 338.104C79.8541 338.879 80.0295 339.655 80.2021 340.418C80.7033 342.634 81.1821 344.752 78.9761 346.483ZM78.9761 346.483L78.8857 346.363C78.8853 346.363 78.8848 346.363 78.8844 346.364C78.8841 346.364 78.8838 346.364 78.8835 346.365L78.9761 346.483ZM111.333 292.023C112.154 292.874 113.001 293.66 113.834 294.434C115.736 296.2 117.57 297.903 118.883 300.169C121.923 305.241 123.744 310.971 125.492 316.47C126.069 318.287 126.639 320.079 127.242 321.813L111.333 292.023ZM88.6161 250.033C88.6187 250.034 88.6212 250.035 88.6237 250.036L88.6831 249.899L88.6083 250.029C88.6109 250.03 88.6135 250.032 88.6161 250.033ZM69.7669 234.86C69.7632 234.861 69.7595 234.862 69.7558 234.863C69.7524 234.864 69.7491 234.866 69.7457 234.867L69.8084 235.004L69.7669 234.86ZM80.9715 237.692C80.9708 237.692 80.9702 237.691 80.9695 237.69C80.9688 237.69 80.9681 237.689 80.9674 237.688L80.8636 237.796L80.9715 237.692ZM107.892 275.597C107.891 275.596 107.889 275.595 107.887 275.594C107.885 275.593 107.883 275.593 107.881 275.592L107.827 275.732L107.892 275.597ZM115.517 286.384C115.517 286.383 115.517 286.382 115.516 286.381C115.516 286.38 115.515 286.379 115.515 286.378L115.377 286.438L115.517 286.384ZM119.26 290.755C119.259 290.754 119.257 290.752 119.255 290.75C119.254 290.749 119.252 290.747 119.25 290.746L119.152 290.859L119.26 290.755ZM125.624 298.772L125.756 298.702C125.756 298.701 125.756 298.701 125.755 298.701L125.624 298.772ZM134.933 322.695C134.933 322.695 134.933 322.695 134.933 322.695C134.933 322.694 134.933 322.694 134.933 322.693L134.791 322.744L134.933 322.695ZM113.515 331.735C113.519 331.735 113.523 331.734 113.527 331.733C113.531 331.732 113.535 331.731 113.539 331.729L113.49 331.588L113.515 331.735ZM109.107 331.023C109.108 331.023 109.11 331.024 109.111 331.025C109.113 331.026 109.115 331.026 109.116 331.027L109.176 330.889L109.107 331.023ZM91.6638 326.267C91.6871 326.312 91.7109 326.356 91.7352 326.4C91.7764 326.371 91.8177 326.343 91.8593 326.314C91.8352 326.27 91.8115 326.226 91.7883 326.181C91.7466 326.21 91.7051 326.238 91.6638 326.267ZM62.5719 377.393C62.4926 377.366 62.4138 377.338 62.3354 377.31C62.4147 377.286 62.4937 377.26 62.5724 377.234C62.574 377.235 62.5755 377.235 62.5771 377.236C62.6531 377.262 62.7294 377.288 62.806 377.314C62.7282 377.341 62.6502 377.367 62.5719 377.393ZM70.8869 370.454L71.014 370.534C71.0145 370.533 71.015 370.532 71.0155 370.531C71.0159 370.531 71.0163 370.53 71.0167 370.529L70.8869 370.454ZM86.6724 338.77C86.6722 338.769 86.672 338.768 86.6718 338.767C86.6715 338.766 86.6712 338.765 86.6709 338.764L86.526 338.802L86.6724 338.77ZM86.6533 347.726C86.6537 347.725 86.6542 347.724 86.6546 347.723C86.655 347.723 86.6554 347.722 86.6558 347.721L86.526 347.646L86.6533 347.726ZM80.3243 352.999L80.4079 353.124C80.408 353.123 80.4081 353.123 80.4083 353.123L80.3243 352.999ZM68.0024 379.172C68.0001 379.17 67.9978 379.169 67.9956 379.167C67.9932 379.166 67.9908 379.165 67.9884 379.164L67.9209 379.298L68.0024 379.172ZM116.873 386.253C116.873 386.251 116.872 386.249 116.872 386.247C116.872 386.245 116.871 386.243 116.87 386.241L116.726 386.28L116.873 386.253ZM83.9059 385.245C83.9064 385.245 83.907 385.245 83.9076 385.244C83.9082 385.244 83.9088 385.244 83.9094 385.243L83.8296 385.116L83.9059 385.245ZM66.484 385.004C66.4849 385.005 66.4857 385.006 66.4866 385.006C66.4875 385.007 66.4883 385.007 66.4891 385.008L66.5727 384.883L66.484 385.004ZM52.4016 374.405C52.4016 374.406 52.4015 374.407 52.4015 374.408C52.4015 374.408 52.4015 374.409 52.4015 374.41H52.5515L52.4016 374.405ZM80.7275 330.594C80.7268 330.595 80.7261 330.597 80.7254 330.598C80.7248 330.6 80.7243 330.601 80.7237 330.603L80.8636 330.657L80.7275 330.594ZM92.4038 319.811C92.4029 319.812 92.402 319.812 92.4011 319.812C92.4003 319.813 92.3995 319.813 92.3986 319.813L92.4581 319.951L92.4038 319.811ZM104.82 323.996C104.819 323.996 104.817 323.997 104.816 323.997C104.815 323.998 104.814 323.998 104.813 323.998L104.861 324.14L104.82 323.996ZM99.7383 325.769C97.5812 325.537 96.5027 323.907 96.7723 322.046L99.7383 325.769ZM109.245 324.24C109.243 324.239 109.242 324.238 109.24 324.237C109.238 324.237 109.237 324.236 109.235 324.235L109.176 324.373L109.245 324.24ZM112.899 325.629C112.897 325.629 112.896 325.63 112.895 325.63C112.894 325.631 112.892 325.631 112.891 325.632L112.951 325.769L112.899 325.629ZM127.906 323.949C127.907 323.951 127.908 323.953 127.908 323.956L127.91 323.962L128.05 323.907L127.906 323.949Z" fill="white" stroke="white" stroke-width="0.3"/>
<path d="M116.875 386.514C116.875 380.519 116.599 374.524 116.047 368.529C116.778 369.193 117.509 369.87 118.239 370.564L118.239 370.564L118.244 370.569C118.821 371.066 119.74 371.305 120.611 371.245C121.482 371.185 122.348 370.822 122.787 370.065L122.788 370.062C124.832 366.534 126.878 363.002 128.689 359.469C129.72 359.895 130.861 360.132 132.094 360.132C133.882 360.132 135.324 359.537 136.68 358.835C137.023 358.657 137.36 358.473 137.695 358.29C138.69 357.747 139.67 357.211 140.767 356.867C143.582 356.022 146.51 355.95 149.472 355.877C149.747 355.87 150.023 355.863 150.299 355.856C153.534 355.768 156.795 355.594 159.924 354.302L159.924 354.302L159.929 354.3C165.104 351.949 168.117 346.769 167.295 341.804L167.295 341.804L167.294 341.799C166.351 337.12 162.174 333.862 157.226 332.744C157.202 331.927 157.429 331.15 157.845 330.411C158.524 329.203 159.708 328.099 161.132 327.116C163.978 325.15 167.736 323.701 170.159 322.888C176.884 320.798 183.875 319.87 190.865 320.334C191.776 320.395 192.476 320.138 192.949 319.698C193.421 319.26 193.654 318.651 193.654 318.032C193.654 316.789 192.716 315.502 190.886 315.381C181.424 314.681 172.233 316.314 163.854 319.814C160.474 321.214 156.745 323.318 154.23 325.988C151.712 328.661 150.395 331.921 151.909 335.602L151.909 335.602L151.911 335.608C152.19 336.211 152.544 336.641 153.009 336.95C153.472 337.257 154.034 337.437 154.718 337.555L154.727 337.556L154.736 337.557C158.997 337.787 162.398 340.995 161.876 344.6L161.875 344.603C161.613 346.642 160.434 348.06 158.812 349.031C157.186 350.005 155.12 350.525 153.109 350.756L153.108 350.757C151.492 350.956 149.828 351.027 148.149 351.098C147.874 351.11 147.598 351.121 147.322 351.134C145.368 351.221 143.405 351.338 141.507 351.688C139.876 351.923 138.247 352.392 136.619 353.095L136.618 353.095L136.612 353.098C136.265 353.269 135.889 353.488 135.502 353.713C135.357 353.798 135.21 353.884 135.062 353.968C134.515 354.28 133.952 354.58 133.392 354.779C132.832 354.978 132.287 355.072 131.774 354.983C131.266 354.895 130.774 354.626 130.323 354.069L130.322 354.068C128.906 352.357 126.084 352.604 124.954 354.554L124.949 354.562L124.946 354.57C123.505 357.945 121.75 361.32 119.799 364.593C119.347 364.181 118.895 363.772 118.444 363.362L118.443 363.362C117.095 362.14 115.748 360.919 114.401 359.641L114.401 359.64L114.396 359.636C113.536 358.894 112.196 358.781 111.116 359.142C110.033 359.503 109.15 360.367 109.295 361.627C110.105 370.246 111.724 378.63 113.612 387.01C113.69 387.41 113.943 387.692 114.267 387.858C114.589 388.023 114.983 388.076 115.361 388.03C116.111 387.937 116.875 387.433 116.875 386.514Z" fill="white" stroke="white" stroke-width="0.3"/>
<path d="M235.288 381.564C235.481 381.267 235.646 380.983 235.762 380.783C236.56 379.867 237.358 379.177 238.434 378.249L238.434 378.249L238.438 378.245C241.67 375.223 245.172 372.2 248.673 369.411C255.942 364.066 264.021 359.65 272.643 355.697L272.644 355.696C274.131 354.996 275.842 353.995 276.842 352.775C277.343 352.163 277.675 351.485 277.697 350.754C277.72 350.02 277.43 349.257 276.737 348.479C275.498 347.054 273.379 345.938 271.083 345.063C268.782 344.187 266.281 343.546 264.257 343.08C258.852 341.68 253.177 340.981 247.504 340.981C246.017 340.981 244.531 341.039 243.048 341.101C242.95 341.105 242.851 341.109 242.752 341.113C241.368 341.171 239.986 341.229 238.604 341.243C235.644 341.272 232.694 341.097 229.747 340.288L229.745 340.287C225.599 339.223 221.828 337.515 218.067 335.811C217.317 335.471 216.567 335.132 215.815 334.797C213.058 333.572 210.27 332.42 207.315 331.601C208.093 329.911 208.085 327.951 206.914 326.154L206.913 326.153C206.831 326.029 206.744 325.909 206.654 325.793C210.581 326.281 214.508 326.739 218.369 327.083L218.37 327.084C221.083 327.318 223.885 326.911 225.744 325.722C226.676 325.126 227.377 324.329 227.702 323.314C228.026 322.299 227.969 321.085 227.421 319.665C226.459 317.174 224.4 315.404 221.883 314.259C219.365 313.114 216.377 312.587 213.529 312.587C207.452 312.587 201.371 313.375 195.302 314.161C193.281 314.422 191.262 314.684 189.244 314.916L189.219 314.919L189.195 314.93C188.181 315.43 187.692 316.664 187.798 317.727C187.851 318.263 188.056 318.772 188.438 319.134C188.823 319.498 189.372 319.697 190.083 319.636C190.531 319.597 190.981 319.559 191.433 319.52C196.414 319.092 201.588 318.647 206.536 318.007C206.655 317.994 206.776 317.982 206.897 317.97C209.103 317.745 211.577 317.492 213.959 317.629C216.472 317.774 218.863 318.351 220.715 319.836L220.715 319.837L220.722 319.841C221.118 320.126 221.479 320.453 221.752 320.776C222.028 321.103 222.202 321.413 222.246 321.665C222.267 321.788 222.256 321.891 222.218 321.976C222.18 322.06 222.11 322.139 221.988 322.206C221.737 322.344 221.286 322.42 220.553 322.363C219.344 322.247 218.134 322.073 216.921 321.898L216.919 321.898C215.708 321.724 214.492 321.549 213.276 321.432C210.445 321.083 207.547 320.734 204.65 320.385L204.649 320.385C201.75 320.036 198.852 319.687 196.021 319.338C195.05 319.218 194.005 319.396 193.23 319.852C192.451 320.311 191.934 321.061 192.079 322.065C192.357 324.697 194.028 326.362 196.752 327.537L196.761 327.541L196.77 327.544C197.172 327.659 199.386 328.355 200.958 329.134C201.35 329.329 201.698 329.526 201.967 329.719C202.24 329.916 202.41 330.093 202.476 330.242C202.506 330.312 202.511 330.368 202.498 330.417C202.486 330.467 202.451 330.525 202.374 330.591C202.367 330.596 202.361 330.602 202.353 330.607L259.368 356.724C251.279 361.146 243.459 366.499 236.718 372.55L236.62 372.436C236.62 372.436 236.619 372.437 236.619 372.437C236.272 372.736 235.906 373.044 235.53 373.361C234.45 374.27 233.283 375.252 232.23 376.313C230.808 377.745 229.575 379.337 229.025 381.116L229.024 381.119C228.609 382.55 228.746 384.105 229.441 385.364C230.138 386.628 231.393 387.587 233.193 387.826L233.194 387.826C235.115 388.063 237.097 387.589 239.086 387.007C239.458 386.898 239.831 386.785 240.204 386.672C241.831 386.18 243.462 385.687 245.094 385.499L245.095 385.499C246.968 385.268 249.072 385.505 250.372 386.627C251.032 387.197 251.563 387.883 252.104 388.584L252.108 388.589C252.644 389.284 253.191 389.992 253.877 390.584L253.883 390.589L253.89 390.593C255.246 391.53 256.625 392.249 258.289 392.249C258.975 392.249 259.642 392.16 260.27 392.069C260.33 392.061 260.391 392.052 260.451 392.043C261.014 391.961 261.542 391.884 262.034 391.871C262.577 391.857 263.064 391.921 263.493 392.135C263.919 392.348 264.303 392.715 264.628 393.333L264.627 393.333L264.635 393.345C265.831 395.18 266.433 397.424 266.701 399.738C266.969 402.052 266.903 404.427 266.768 406.518C266.656 408.106 266.406 409.743 266.153 411.4C266.101 411.739 266.049 412.079 265.998 412.419C265.699 414.42 265.436 416.437 265.453 418.399C265.47 420.362 265.767 422.276 266.592 424.068C267.417 425.861 268.766 427.525 270.876 428.994C278.221 434.159 288.534 432.741 295.843 428.536C299.525 426.479 302.517 423.822 305.495 421.177C306.238 420.517 306.98 419.858 307.731 419.21L307.731 419.21L307.735 419.206C310.007 417.105 312.37 415.179 314.717 413.265C316.269 412 317.813 410.74 319.321 409.439C319.755 409.125 319.979 408.71 320.026 408.276C320.072 407.842 319.941 407.4 319.689 407.026C319.183 406.279 318.174 405.782 317.027 406.152C312.548 407.441 309.024 409.959 305.781 412.816C304.484 413.959 303.23 415.158 301.979 416.354C301.667 416.653 301.354 416.952 301.042 417.249C299.475 418.739 297.895 420.204 296.216 421.538C293.398 423.738 289.24 425.995 285.021 426.862C280.803 427.729 276.551 427.203 273.499 423.882L273.499 423.882C271.917 422.174 271.449 420.065 271.449 417.845C271.449 416.216 271.7 414.545 271.941 412.939C272.029 412.351 272.116 411.772 272.189 411.207C272.999 407.009 273.271 403.034 272.458 398.823C271.92 395.337 271.106 391.098 268.099 388.266L268.099 388.266L268.094 388.262C266.991 387.31 265.345 386.601 263.703 386.365L263.703 386.365L263.696 386.364C263.074 386.305 262.455 386.35 261.852 386.423C261.591 386.455 261.337 386.491 261.088 386.527C260.752 386.575 260.424 386.622 260.094 386.655C258.963 386.77 257.94 386.708 257.045 385.94C256.512 385.364 256.045 384.788 255.574 384.208L255.573 384.206C255.102 383.626 254.628 383.041 254.085 382.455L254.079 382.449L254.073 382.444C252.698 381.257 250.782 380.551 248.888 380.084L248.888 380.084L248.879 380.082C245.071 379.378 241.27 380.083 237.493 381.015C237.492 381.015 237.492 381.015 237.491 381.015L237.489 381.015C236.761 381.173 236.026 381.331 235.288 381.564ZM235.288 381.564C235.211 381.588 235.135 381.613 235.058 381.638C235.298 381.285 235.503 380.931 235.639 380.695C236.448 379.764 237.257 379.066 238.336 378.135C241.572 375.11 245.077 372.084 248.582 369.291C255.862 363.939 263.952 359.517 272.58 355.56" fill="white" stroke="white" stroke-width="0.3"/>
<path d="M319.037 410.381L319.025 410.388C318.297 410.765 317.42 410.642 316.866 410.132C316.3 409.611 316.102 408.72 316.666 407.626L316.672 407.614L316.68 407.603C318.876 404.761 321.826 403.997 324.976 403.705C325.914 403.618 326.88 403.572 327.849 403.526C328.498 403.495 329.149 403.465 329.795 403.421C331.412 403.312 333.016 403.124 334.55 402.664C337.746 401.629 340.082 399.387 342.409 397.029C342.552 396.884 342.696 396.738 342.839 396.592C345.018 394.378 347.235 392.124 350.173 390.801L350.179 390.798L350.179 390.798C353.707 389.393 357.509 388.923 361.312 389.626C363.22 389.862 365.122 390.566 366.742 391.265L366.75 391.269L366.757 391.273C367.575 391.744 368.324 392.332 369.063 392.911L369.067 392.914C369.809 393.497 370.541 394.071 371.338 394.53C371.98 394.861 372.843 394.991 373.834 394.977C374.824 394.963 375.926 394.804 377.033 394.573C379.247 394.11 381.463 393.356 382.812 392.891L382.816 392.889C384.691 392.311 386.079 391.565 387.032 390.544C387.981 389.527 388.51 388.223 388.643 386.504L388.643 386.501C388.905 383.795 389.923 380.616 392.463 378.897C391.791 378.754 391.115 378.753 390.421 378.753C388.807 378.985 387.205 379.216 385.604 379.676C383.735 380.368 382.134 381.29 380.532 382.673L380.524 382.68L380.515 382.685C380.249 382.858 379.981 383.046 379.707 383.238L379.667 383.267C379.406 383.45 379.14 383.638 378.865 383.819C378.287 384.2 377.669 384.557 376.978 384.796C374.199 385.755 371.709 384.311 370.336 382.415L370.334 382.412C370.126 382.112 369.953 381.784 369.789 381.473L369.788 381.471C369.623 381.156 369.468 380.861 369.29 380.61C369.112 380.359 368.918 380.161 368.682 380.038C368.448 379.916 368.16 379.861 367.782 379.915C367.021 380.025 366.307 380.521 365.674 381.126C365.204 381.574 364.791 382.067 364.442 382.486C364.32 382.631 364.206 382.768 364.099 382.89L364.091 382.9L364.09 382.9C361.916 385.011 359.188 386.662 355.637 386.898L355.637 386.898C348.28 387.369 342.574 382.195 338.53 377.774C333.663 372.639 330.149 366.806 327.448 360.745C325.825 357.243 324.743 353.739 324.201 350.001C324.144 349.68 324.083 349.353 324.022 349.021C323.796 347.796 323.558 346.508 323.425 345.221C323.255 343.584 323.254 341.936 323.664 340.398C324.078 338.614 325.045 337.366 326.31 336.333C327.353 335.481 328.607 334.771 329.921 334.025C330.194 333.871 330.469 333.715 330.746 333.556L330.75 333.553L330.75 333.553C332.501 332.623 334.252 331.635 336.005 330.646L336.005 330.645C337.757 329.657 339.51 328.668 341.264 327.736C344.904 325.641 348.544 323.605 352.183 321.569L352.183 321.569C355.823 319.533 359.462 317.497 363.101 315.403C363.775 315 364.44 314.588 365.105 314.176C367.881 312.456 370.638 310.747 373.921 309.803L373.927 309.801L373.927 309.801L373.94 309.798C375.815 309.335 377.722 308.865 379.634 309.099C380.724 309.1 381.745 309.276 382.718 309.45L382.811 309.467C383.758 309.636 384.658 309.797 385.557 309.797C387.278 309.797 388.94 309.225 390.623 308.528C391.015 308.366 391.409 308.196 391.804 308.026C393.098 307.469 394.413 306.903 395.765 306.544L395.776 306.541L395.776 306.541C399.138 305.919 401.447 306.397 404.347 306.996C404.732 307.076 405.127 307.157 405.536 307.239C407.102 307.463 408.343 306.958 409.433 306.16C410.23 305.576 410.936 304.844 411.629 304.126C411.892 303.854 412.152 303.583 412.416 303.324L412.423 303.317L412.423 303.317L412.432 303.309C414.313 301.685 416.218 300.041 418.669 299.101L418.678 299.097L418.678 299.098C420.348 298.583 422.07 298.385 423.783 298.187C424.023 298.159 424.263 298.132 424.502 298.103C426.455 297.871 428.39 297.582 430.255 296.777C431.731 296.082 433.141 295.271 434.557 294.457L434.559 294.455C435.973 293.641 437.393 292.824 438.882 292.123L438.882 292.123C442.409 290.484 445.939 289.781 449.74 290.015L449.743 290.015C450.263 290.056 450.85 290.125 451.475 290.199C451.745 290.231 452.023 290.264 452.305 290.296C453.243 290.401 454.24 290.495 455.227 290.509C457.208 290.538 459.114 290.246 460.419 289.12C461.19 288.454 461.518 287.563 461.683 286.59C461.766 286.103 461.808 285.601 461.846 285.099C461.849 285.052 461.853 285.005 461.856 284.958C461.89 284.506 461.924 284.054 461.986 283.627L461.987 283.624L462.391 281.18L462.796 278.736L462.797 278.727L462.797 278.727C463.608 275.229 464.689 271.727 466.314 268.454C467.67 265.645 469.579 263.05 472.861 261.634L472.873 261.628L472.873 261.629C473.754 261.336 474.617 261.103 475.456 260.881C475.549 260.856 475.641 260.832 475.733 260.807C476.475 260.612 477.196 260.421 477.897 260.203C479.472 259.711 480.933 259.079 482.259 257.934L482.266 257.929L482.266 257.929C482.981 257.376 483.696 256.788 484.423 256.189C485.001 255.713 485.587 255.231 486.187 254.755C487.533 253.688 488.932 252.67 490.411 251.893C493.375 250.334 496.662 249.741 500.49 251.629L500.495 251.632L500.495 251.632C501.062 251.938 501.396 252.345 501.528 252.79C501.659 253.235 501.582 253.697 501.364 254.104C500.932 254.913 499.93 255.527 498.789 255.404L498.784 255.403C496.409 255.062 494.358 255.913 492.52 257.182C491.253 258.057 490.103 259.118 489.021 260.116C488.528 260.572 488.048 261.014 487.579 261.419L487.574 261.424L487.574 261.423C484.316 264.001 481.329 265.171 477.276 266.337C474.895 267.022 473.441 268.504 472.444 270.281C471.551 271.875 471.029 273.7 470.542 275.404C470.483 275.608 470.426 275.81 470.368 276.01L470.367 276.014C469.299 279.332 468.911 282.501 468.525 285.655C468.425 286.467 468.326 287.278 468.215 288.09L468.214 288.096C467.529 291.999 465.125 294.189 461.95 295.338C458.785 296.484 454.851 296.598 451.071 296.365C446.252 296.134 443.312 297.056 439.287 299.14C438.963 299.327 438.641 299.513 438.321 299.699C435.452 301.364 432.692 302.966 429.275 303.809C428.039 304.113 426.793 304.271 425.587 304.423C424.945 304.504 424.314 304.584 423.701 304.684C421.924 304.973 420.269 305.433 418.815 306.574L418.805 306.582L418.804 306.582C417.741 307.27 416.875 308.131 415.997 309.006L415.992 309.011C415.119 309.88 414.234 310.762 413.143 311.469C410.696 313.111 407.962 314.059 404.949 313.586C404.351 313.5 403.714 313.351 403.062 313.198C402.824 313.142 402.584 313.085 402.343 313.031C401.435 312.828 400.505 312.657 399.578 312.657C398.252 312.657 396.926 313.136 395.729 313.568C395.496 313.652 395.268 313.735 395.046 313.811C394.652 313.966 394.257 314.125 393.861 314.285C391.29 315.321 388.66 316.381 385.827 316.381C384.74 316.381 383.74 316.293 382.786 316.191C382.547 316.165 382.312 316.139 382.079 316.113C381.378 316.034 380.7 315.958 380.02 315.915C378.216 315.8 376.422 315.915 374.293 316.833C370.526 318.575 366.959 320.608 363.422 322.702C362.592 323.193 361.763 323.688 360.934 324.183C358.231 325.797 355.521 327.415 352.733 328.93M319.037 410.381L352.661 328.798M319.037 410.381L319.048 410.373C320.36 409.354 321.872 409.066 323.473 409.066C324.273 409.066 325.093 409.138 325.917 409.226C326.129 409.248 326.341 409.271 326.554 409.295C327.166 409.362 327.78 409.43 328.383 409.473C331.622 409.706 334.885 409.709 337.884 408.533M319.037 410.381L337.884 408.533M352.733 328.93C352.733 328.93 352.733 328.93 352.733 328.93L352.661 328.798M352.733 328.93C352.733 328.93 352.734 328.929 352.734 328.929L352.661 328.798M352.733 328.93C350.847 329.976 349.028 331.023 347.208 332.07L347.208 332.071C345.388 333.117 343.568 334.165 341.68 335.213M352.661 328.798C350.774 329.845 348.954 330.893 347.134 331.94C345.313 332.987 343.493 334.035 341.606 335.082M341.68 335.213C341.68 335.212 341.68 335.212 341.681 335.212L341.606 335.082M341.68 335.213C341.679 335.213 341.679 335.213 341.679 335.213L341.606 335.082M341.68 335.213C340.581 335.845 339.356 336.452 338.116 337.065C337.526 337.357 336.933 337.651 336.349 337.95C334.53 338.88 332.791 339.863 331.458 341.014C330.886 341.507 330.56 342.227 330.408 343.09C330.255 343.954 330.279 344.948 330.396 345.974C330.557 347.376 330.886 348.81 331.167 350.029C331.298 350.598 331.419 351.121 331.506 351.572C332.315 354.598 333.121 357.61 334.463 360.621L334.463 360.623C337.151 366.887 341.452 372.92 346.83 377.794L346.834 377.797L346.834 377.797C347.906 378.838 349.444 380.108 351.145 380.971C352.848 381.836 354.691 382.282 356.389 381.719L356.395 381.717L356.395 381.717C357.965 381.265 359.018 380.136 360.063 378.913C360.147 378.815 360.23 378.717 360.314 378.618C361.269 377.494 362.255 376.333 363.65 375.676C366.385 374.261 370.219 374.253 372.701 376.153C373.806 376.87 374.36 377.826 374.896 378.751L374.901 378.76L374.921 378.795V378.836C374.921 378.84 374.923 378.857 374.936 378.893C374.948 378.927 374.966 378.968 374.99 379.016C375.038 379.113 375.103 379.225 375.171 379.342C375.216 379.419 375.262 379.499 375.303 379.575L375.463 379.437C376.167 378.241 377.679 377.243 379.29 376.461C380.917 375.67 382.678 375.086 383.896 374.736M341.606 335.082L383.939 374.879M383.896 374.736C383.896 374.735 383.897 374.735 383.898 374.735L383.939 374.879M383.896 374.736C383.895 374.736 383.895 374.736 383.894 374.736L383.939 374.879M383.896 374.736C386.883 373.798 390.139 373.564 393.394 374.032M383.939 374.879C386.905 373.948 390.141 373.716 393.377 374.181M393.394 374.032C393.392 374.032 393.391 374.032 393.39 374.032L393.377 374.181M393.394 374.032C394.755 374.15 396.191 374.503 397.36 375.156C398.53 375.809 399.444 376.772 399.725 378.107C400.005 379.435 399.652 380.522 399.031 381.505C398.572 382.231 397.959 382.911 397.345 383.591C397.137 383.822 396.928 384.054 396.725 384.287L396.721 384.292L396.721 384.292C395.54 385.538 395.209 386.897 394.974 388.315C394.943 388.504 394.913 388.694 394.883 388.885C394.691 390.122 394.492 391.404 393.778 392.639M393.394 374.032C393.395 374.032 393.397 374.032 393.398 374.033L393.377 374.181M393.377 374.181L393.778 392.639M393.778 392.639C393.778 392.638 393.779 392.637 393.78 392.636L393.646 392.567M393.778 392.639L396.612 384.189C395.236 385.64 394.987 387.241 394.735 388.865C394.542 390.104 394.347 391.357 393.646 392.567M393.778 392.639C392.679 394.771 390.491 396.417 388.335 397.813L388.331 397.815C385.614 399.457 382.63 400.392 379.387 401.092L379.379 401.094L379.379 401.093C378.872 401.173 378.346 401.267 377.808 401.363C376.784 401.546 375.716 401.736 374.653 401.851C373.026 402.026 371.385 402.028 369.873 401.554L369.871 401.553C368.253 401.016 366.975 400.04 365.725 399.085C365.598 398.988 365.471 398.892 365.345 398.796C363.964 397.749 362.573 396.78 360.723 396.438L360.719 396.437C357.533 395.75 354.337 396.664 351.663 398.279C349.817 399.519 348.208 400.994 346.6 402.468C346.105 402.921 345.611 403.375 345.11 403.821C342.983 405.715 340.742 407.476 337.884 408.533M393.778 392.639C393.777 392.64 393.777 392.641 393.776 392.642L393.646 392.567M393.646 392.567C392.568 394.661 390.411 396.291 388.253 397.687C385.557 399.316 382.591 400.247 379.355 400.945L337.884 408.533M375.256 379.814L375.374 379.712L375.256 379.814ZM375.256 379.814C375.237 379.771 375.213 379.724 375.187 379.675L375.256 379.814Z" fill="white" stroke="white" stroke-width="0.3"/>
<path d="M528.655 210.447C530.22 210.451 531.805 210.925 533.133 211.84C536.976 214.212 536.976 218.245 536.976 221.715V221.741C536.976 222.667 537.043 223.46 537.303 224.161C537.562 224.858 538.014 225.475 538.8 226.04C538.837 226.066 538.873 226.091 538.91 226.116C539.537 226.548 540.118 226.949 540.577 227.459C541.069 228.005 541.419 228.672 541.558 229.632L541.56 229.642L541.559 229.642C541.699 231.456 540.646 232.895 539.466 234.233C539.252 234.476 539.035 234.714 538.819 234.951C538.432 235.376 538.049 235.796 537.696 236.229C537.15 236.898 536.691 237.579 536.43 238.31C536.049 239.737 535.833 241.282 535.614 242.857L535.58 243.1C535.348 244.757 535.103 246.44 534.644 248.023C534.185 249.607 533.512 251.098 532.419 252.37C531.325 253.643 529.819 254.691 527.706 255.397L527.702 255.398C525.387 256.103 522.806 256.219 520.24 256.161C519.1 256.135 517.96 256.074 516.846 256.015C516.706 256.008 516.566 256 516.426 255.993C515.179 255.928 513.969 255.87 512.828 255.87C507.431 255.87 502.302 255.637 496.902 254.938C496.338 254.877 495.938 254.676 495.715 254.368C495.49 254.057 495.468 253.669 495.597 253.286C495.854 252.528 496.711 251.745 497.956 251.386L497.968 251.383L497.981 251.382C504.726 250.605 511.286 250.637 517.959 250.669C519.299 250.676 520.644 250.682 521.996 250.682C523.878 250.682 525.401 250.507 526.617 249.94C527.824 249.377 528.743 248.42 529.405 246.822C530.206 244.515 530.475 241.975 530.745 239.413L530.745 239.405L530.747 239.398C530.765 239.312 530.783 239.227 530.801 239.141C531.322 236.659 531.893 233.94 533.748 231.881L533.755 231.874L533.762 231.867L535.076 230.733L535.847 230.067L536.038 229.903C535.988 229.87 535.929 229.83 535.862 229.786C535.655 229.647 535.375 229.457 535.087 229.252C534.8 229.048 534.502 228.827 534.258 228.628C534.136 228.528 534.026 228.433 533.937 228.346C533.857 228.267 533.786 228.189 533.741 228.118C532.13 226.486 531.835 224.181 531.573 222.139L531.554 221.997C531.418 221.286 531.418 220.52 531.418 219.77V219.763C531.418 219.003 531.417 218.262 531.286 217.58L531.283 217.566V217.552C531.283 217.403 531.222 217.102 531.098 216.747C530.974 216.396 530.795 216.009 530.569 215.689C530.341 215.366 530.079 215.128 529.798 215.044C529.529 214.964 529.21 215.014 528.835 215.338L528.825 215.347L528.824 215.346C527.977 215.955 526.854 216.135 525.874 215.924C524.893 215.712 524.028 215.101 523.739 214.102L523.738 214.1C522.656 210.129 522.371 205.643 525.386 202.094C526.761 200.434 528.951 199.257 531.403 198.786C531.959 198.666 532.732 198.637 533.57 198.619C533.704 198.617 533.841 198.614 533.979 198.611C534.328 198.605 534.685 198.598 535.044 198.586L531.941 197.916L531.936 197.915C531.796 197.88 531.655 197.846 531.511 197.811C529.736 197.378 527.746 196.893 526.222 195.797L526.217 195.793L526.217 195.792C524.556 194.478 523.996 192.737 524.274 191.054C524.552 189.378 525.657 187.774 527.304 186.707C528.133 186.111 529.096 185.757 530.111 185.465C530.518 185.348 530.929 185.242 531.345 185.134C531.979 184.971 532.623 184.805 533.274 184.594L533.279 184.592C535.686 183.9 537.815 182.749 539.409 180.914L539.411 180.912C541.272 178.846 541.867 176.846 541.9 174.785C541.926 173.189 541.616 171.563 541.287 169.832C541.187 169.311 541.086 168.78 540.992 168.238L540.991 168.232L540.991 168.231C540.718 166.109 540.992 164.222 541.809 162.107L541.813 162.096L541.819 162.086C541.859 162.017 541.901 161.946 541.943 161.874C542.114 161.581 542.294 161.273 542.447 160.973C542.641 160.596 542.781 160.253 542.811 159.991C542.826 159.862 542.812 159.768 542.779 159.702C542.748 159.641 542.693 159.589 542.587 159.555C542.476 159.52 542.312 159.508 542.077 159.536C541.844 159.563 541.55 159.63 541.185 159.744L541.174 159.748L541.174 159.747C540.173 159.978 539.255 160.309 538.368 160.657C538.12 160.754 537.875 160.853 537.631 160.951C537.003 161.204 536.384 161.453 535.762 161.663C534.025 162.251 532.239 162.55 530.042 161.84C528.254 161.364 527.018 160.353 525.931 159.21C525.545 158.803 525.174 158.377 524.805 157.951C524.657 157.781 524.509 157.611 524.36 157.442C523.839 156.851 523.305 156.275 522.707 155.758C520.291 153.674 517.217 153.487 514.021 153.293C513.711 153.274 513.399 153.255 513.088 153.234L513.087 153.234C509.844 153.001 506.557 152.3 504.359 149.928L504.356 149.925C503.54 148.986 502.721 147.579 502.44 146.161C502.154 146.347 501.776 146.523 501.391 146.678C500.879 146.884 500.335 147.06 499.927 147.178L499.915 147.181L499.915 147.181C497.579 147.655 495.321 147.06 493.187 146.154C492.119 145.7 491.078 145.167 490.071 144.647L489.926 144.572C488.969 144.078 488.046 143.6 487.153 143.215C482.303 141.122 477.454 139.262 472.337 137.635L472.333 137.633C471.992 137.516 471.619 137.369 471.232 137.217L471.184 137.198C470.811 137.051 470.425 136.899 470.039 136.76C469.232 136.47 468.444 136.245 467.798 136.245C467.463 136.245 467.24 136.26 467.083 136.293C466.932 136.325 466.852 136.372 466.794 136.432C466.729 136.499 466.68 136.593 466.607 136.748C466.598 136.767 466.589 136.786 466.58 136.806C466.514 136.946 466.433 137.121 466.314 137.328C466.276 137.409 466.238 137.492 466.2 137.576C465.696 138.679 465.102 139.982 463.543 140.655C461.614 141.488 459.553 141.365 457.614 140.836C455.675 140.308 453.842 139.37 452.358 138.555C444.787 134.587 438.566 128.984 434.237 122.212L434.233 122.207L434.233 122.206C434.018 121.835 433.813 121.444 433.608 121.053C433.554 120.951 433.5 120.849 433.447 120.747C433.186 120.253 432.919 119.763 432.619 119.304C432.021 118.386 431.3 117.598 430.259 117.149L430.252 117.146L430.252 117.146C429.341 116.696 428.224 116.58 427.053 116.608C426.153 116.631 425.235 116.738 424.365 116.84C424.103 116.87 423.846 116.9 423.595 116.927C418.221 117.623 413.117 119.247 408.552 121.796C408.414 121.875 408.275 121.956 408.136 122.036C405.002 123.846 401.315 125.976 397.121 125.071C395.525 124.726 393.991 123.936 392.864 122.83C391.571 123.181 390.211 123.22 388.841 123.036C385.778 122.625 382.656 121.1 380.088 119.467C379.866 119.339 379.646 119.208 379.425 119.077C378.019 118.241 376.598 117.397 374.782 117.394C373.862 117.509 372.938 117.85 371.994 118.199L371.984 118.203C371.047 118.549 370.09 118.903 369.129 119.022C369.129 119.022 369.129 119.022 369.129 119.022L369.11 118.873C365.605 119.339 362.1 119.106 358.864 117.942L528.655 210.447ZM528.655 210.447C528.608 209.379 528.735 208.312 529.144 207.371L529.144 207.37C529.67 206.123 530.384 205.455 531.322 205.064C532.273 204.668 533.461 204.552 534.948 204.436M528.655 210.447L529.006 207.311C530.085 204.751 531.972 204.519 534.938 204.286M547.484 178.733C548.169 176.723 548.098 174.893 547.827 173.078C547.731 172.437 547.61 171.795 547.488 171.149C547.437 170.882 547.387 170.614 547.338 170.345C547.169 169.424 547.019 168.485 546.952 167.504L546.952 167.503C546.887 166.601 547.082 165.721 547.382 164.846C547.572 164.295 547.798 163.756 548.025 163.217C548.161 162.895 548.297 162.572 548.425 162.245C549.103 160.52 549.533 158.767 548.274 156.956L548.271 156.952C546.332 154.321 542.48 153.863 539.482 154.802C538.523 155.039 537.703 155.452 536.899 155.857L536.893 155.86C536.082 156.268 535.288 156.667 534.363 156.896L534.363 156.895L534.353 156.898C533.303 157.238 532.534 157.177 531.866 156.875C531.188 156.569 530.599 156.008 529.924 155.309C529.708 155.076 529.494 154.842 529.281 154.609C527.378 152.529 525.533 150.513 522.586 149.453C520.95 148.864 519.317 148.63 517.695 148.484C517.15 148.435 516.608 148.396 516.067 148.357C514.992 148.28 513.924 148.203 512.851 148.049C512.596 148.005 512.341 147.969 512.091 147.934C512.009 147.923 511.927 147.911 511.847 147.9C511.519 147.853 511.204 147.802 510.908 147.731C510.316 147.59 509.811 147.367 509.436 146.935C509.054 146.496 508.792 145.825 508.555 145.096C508.496 144.913 508.438 144.725 508.38 144.537C508.212 143.995 508.045 143.455 507.841 143.014L507.837 143.006L507.832 142.998C506.868 141.452 505.617 140.666 504.219 140.485C502.829 140.305 501.314 140.725 499.817 141.547C498.647 142.107 497.543 142.053 496.459 141.712C495.538 141.423 494.641 140.932 493.732 140.434C493.56 140.34 493.388 140.246 493.215 140.152C491.05 138.984 488.615 138.05 486.192 137.121L486.19 137.12C481.871 135.256 477.282 133.625 472.691 132.459C472.622 132.44 472.552 132.42 472.482 132.399C470.91 131.946 469.027 131.403 467.235 131.291C465.363 131.173 463.556 131.523 462.299 132.964C462.215 133.039 462.14 133.149 462.072 133.271C462.001 133.4 461.931 133.554 461.862 133.722C461.738 134.026 461.615 134.386 461.493 134.741C461.48 134.779 461.467 134.816 461.455 134.854C461.319 135.248 461.187 135.627 461.055 135.921C460.989 136.069 460.926 136.19 460.866 136.279C460.802 136.372 460.755 136.411 460.728 136.423C460.627 136.467 460.479 136.483 460.282 136.464C460.087 136.445 459.857 136.394 459.601 136.315C459.09 136.159 458.491 135.901 457.886 135.611C457.283 135.321 456.679 135.003 456.156 134.726L456.098 134.695C455.608 134.436 455.188 134.214 454.922 134.099C451.164 132.013 447.941 129.463 444.984 126.679C443.379 125.063 442.174 123.214 440.961 121.323C440.917 121.256 440.874 121.189 440.831 121.122C439.662 119.298 438.471 117.442 436.902 115.748C433.887 112.202 429.508 111.741 424.918 111.974L424.918 111.974L424.912 111.974C419.776 112.441 414.639 113.608 409.772 115.475C407.337 116.409 405.174 117.576 403.019 118.738C402.947 118.769 402.858 118.809 402.756 118.854C402.085 119.151 400.836 119.705 399.713 119.978C399.058 120.138 398.478 120.193 398.086 120.072C397.896 120.013 397.758 119.914 397.672 119.772C397.585 119.628 397.54 119.42 397.572 119.122L397.572 119.119C397.643 118.321 397.393 117.681 396.945 117.213C396.501 116.748 395.871 116.46 395.19 116.34C393.838 116.1 392.226 116.514 391.373 117.616C391.075 117.975 390.621 118.127 390.062 118.127C389.501 118.127 388.854 117.973 388.204 117.743C386.906 117.283 385.637 116.534 385.102 116.188C385.101 116.188 385.101 116.187 385.1 116.187L385.092 116.182C382.672 114.557 380.226 112.915 377.234 112.211L377.234 112.21L377.229 112.209C375.448 111.855 373.942 112.033 372.512 112.385C371.836 112.552 371.175 112.758 370.514 112.965C370.478 112.976 370.441 112.988 370.405 112.999C369.706 113.217 369.003 113.434 368.267 113.607C365.338 114.296 362.143 113.837 359.481 112.228L359.481 112.228L359.478 112.227C357.089 110.852 355.497 108.562 354.966 106.043C354.703 104.679 354.9 103.424 355.201 102.181C355.283 101.842 355.374 101.503 355.464 101.163C355.705 100.26 355.948 99.3471 356.047 98.4083L356.047 98.4076C356.322 95.6848 355.291 93.2649 354.111 90.8787C353.952 90.5575 353.791 90.2371 353.629 89.9165C352.585 87.8442 351.539 85.7678 351.193 83.4753L351.193 83.4748C351.05 82.5508 350.528 81.9424 349.836 81.6165C349.15 81.2936 348.306 81.2513 347.506 81.4313C345.918 81.7889 344.408 83.0591 344.695 84.917L344.695 84.917L344.695 84.9186C344.968 86.5717 345.651 88.1015 346.429 89.5891C346.69 90.0897 346.962 90.5839 347.232 91.0766C347.769 92.0558 348.303 93.0287 348.75 94.0317L348.75 94.0318L348.753 94.0374C349.543 95.6282 349.545 97.1055 349.279 98.599C349.152 99.3087 348.966 100.019 348.774 100.749C348.764 100.789 348.753 100.83 348.742 100.871C348.54 101.642 348.336 102.433 348.2 103.255L348.2 103.255L348.199 103.267C347.653 109.63 352.02 115.738 358.814 118.084L547.342 178.685M547.484 178.733C547.484 178.733 547.484 178.733 547.484 178.734L547.342 178.685M547.484 178.733C547.484 178.733 547.484 178.733 547.484 178.732L547.342 178.685M547.484 178.733C546.395 182.022 544.219 184.839 541.232 186.949M547.342 178.685C546.263 181.944 544.106 184.736 541.14 186.831M541.232 186.949C541.234 186.948 541.236 186.946 541.238 186.944L541.14 186.831M541.232 186.949C539.863 188.129 538.225 188.834 536.339 189.532L536.335 189.533C535.99 189.652 535.511 189.77 534.982 189.897C534.923 189.911 534.864 189.925 534.805 189.939C534.321 190.055 533.801 190.179 533.293 190.321C532.723 190.48 532.176 190.659 531.724 190.869C531.27 191.079 530.931 191.311 530.751 191.566M541.232 186.949C541.23 186.951 541.229 186.952 541.227 186.953L541.14 186.831M541.14 186.831L530.751 191.566M530.751 191.566C530.752 191.564 530.753 191.563 530.754 191.561L530.624 191.486M530.751 191.566L536.286 189.391C535.912 189.52 535.372 189.649 534.77 189.793C533.201 190.169 531.209 190.645 530.624 191.486M530.751 191.566C530.75 191.568 530.748 191.57 530.747 191.571L530.624 191.486M530.751 191.566C530.633 191.772 530.608 191.944 530.638 192.09C530.669 192.24 530.762 192.385 530.921 192.526C531.245 192.811 531.798 193.044 532.452 193.232C533.439 193.516 534.594 193.684 535.396 193.8C535.654 193.837 535.875 193.869 536.042 193.898L536.05 193.899L536.058 193.901C538.476 194.597 540.895 195.061 543.322 195.527M530.624 191.486C529.675 193.124 533.527 193.681 535.384 193.95C535.638 193.986 535.855 194.018 536.017 194.046C538.444 194.744 540.87 195.209 543.297 195.675M377.199 112.357C380.165 113.055 382.592 114.684 385.019 116.313L385.019 116.313C386.098 117.011 390.142 119.339 391.49 117.709C393.108 115.615 397.692 116.08 397.422 119.106C397.171 121.494 401.377 119.629 402.819 118.99C402.923 118.944 403.012 118.904 403.085 118.873L377.199 112.357ZM377.199 112.357C374.615 111.842 372.617 112.466 370.557 113.109C369.823 113.338 369.081 113.569 368.301 113.753C365.335 114.451 362.1 113.986 359.403 112.357M377.199 112.357H359.403M359.403 112.357C356.977 110.96 355.359 108.633 354.819 106.073C354.475 104.291 354.9 102.698 355.322 101.113C355.562 100.215 355.8 99.3189 355.898 98.3926M359.403 112.357L355.898 98.3926M355.898 98.3926C356.204 95.3579 354.863 92.6972 353.497 89.9864C352.453 87.9157 351.395 85.8158 351.044 83.4977C350.505 80.0067 344.303 81.4031 344.843 84.8941M355.898 98.3926L344.843 84.8941M344.843 84.8941C345.202 87.0663 346.281 89.0316 347.359 90.9969C347.899 91.9795 348.438 92.9622 348.887 93.9707M344.843 84.8941L348.887 93.9707M348.887 93.9707C350.079 96.3707 349.515 98.5182 348.92 100.785C348.707 101.596 348.49 102.422 348.348 103.28L348.887 93.9707ZM543.322 195.527C543.321 195.527 543.32 195.526 543.318 195.526L543.297 195.675M543.322 195.527C543.323 195.527 543.324 195.527 543.325 195.527L543.297 195.675M543.322 195.527C544.173 195.65 544.753 196.084 545.08 196.679C545.404 197.269 545.472 198.005 545.332 198.728M543.297 195.675C544.915 195.908 545.454 197.304 545.185 198.7M545.185 198.7L545.332 198.727C545.332 198.728 545.332 198.728 545.332 198.728M545.185 198.7C544.376 203.122 539.253 204.053 534.938 204.286M545.185 198.7L545.332 198.729C545.332 198.728 545.332 198.728 545.332 198.728M545.332 198.728C544.916 201.003 543.386 202.375 541.434 203.202C539.489 204.027 537.109 204.319 534.948 204.436M534.938 204.286L534.95 204.435C534.949 204.435 534.949 204.435 534.948 204.436M534.938 204.286L534.946 204.436C534.947 204.436 534.948 204.436 534.948 204.436" fill="white" stroke="white" stroke-width="0.3"/>
<path d="M347.388 84.5129L347.388 84.5126C346.524 85.7548 345.014 85.8097 343.983 85.1651C343.465 84.8416 343.059 84.3377 342.91 83.7089C342.76 83.0789 342.873 82.3408 343.361 81.5571C343.754 80.8784 343.856 80.3475 343.784 79.9172C343.712 79.4872 343.46 79.1306 343.088 78.8095C342.715 78.4872 342.231 78.2102 341.713 77.9378C341.584 77.8699 341.453 77.8021 341.321 77.734C340.929 77.5321 340.532 77.3275 340.175 77.1073L340.166 77.1017L340.166 77.1014C338.518 75.9157 337.688 74.4858 337.411 72.5896C337.144 71.6747 336.823 71.1484 336.31 70.8877C335.786 70.6216 335.022 70.6109 333.812 70.8428C332.745 71.0734 331.742 71.4192 330.731 71.7685L330.727 71.7698C329.718 72.1181 328.7 72.4696 327.613 72.7043L327.605 72.706L327.597 72.7068C325.43 72.9406 323.249 72.9423 321.063 72.2349L321.057 72.233C320.104 71.8802 319.22 71.4108 318.347 70.9467L318.343 70.9446C317.467 70.4793 316.601 70.0196 315.67 69.6747C311.18 68.3847 306.454 69.3027 301.888 70.1894C301.566 70.252 301.244 70.3145 300.924 70.3759C298.674 71.097 296.394 69.158 296.966 66.935C298.845 59.2901 298.039 51.6499 294.015 44.471C293.588 43.7335 293.517 42.813 293.838 42.0139C294.16 41.2099 294.875 40.5373 296 40.2942M347.388 84.5129L296.033 40.4406M347.388 84.5129L347.394 84.5022C348.484 82.6207 349.041 80.7176 348.488 78.5713L348.487 78.567C348.21 77.6103 347.658 76.6606 346.838 75.7175C346.417 75.2323 345.859 74.8728 345.319 74.5524C345.222 74.4947 345.125 74.4385 345.031 74.3831C344.59 74.1255 344.179 73.8858 343.857 73.6078C343.498 73.2978 343.368 72.8247 343.301 72.2777C343.28 72.1001 343.265 71.9225 343.251 71.7432C343.243 71.6458 343.235 71.5479 343.226 71.4493C343.201 71.1748 343.166 70.9012 343.094 70.6541C342.818 69.6987 342.264 68.7416 341.431 68.0222C339.501 66.3572 336.759 65.8898 334.309 66.1244M347.388 84.5129L303.627 64.7816M296 40.2942C296.001 40.2941 296.001 40.294 296.001 40.294L296.033 40.4406M296 40.2942C296 40.2943 295.999 40.2945 295.999 40.2946L296.033 40.4406M296 40.2942C296.233 40.2396 296.468 40.185 296.705 40.1299C297.987 39.8323 299.331 39.5203 300.604 39.1052C302.113 38.6132 303.507 37.9808 304.564 37.0688C305.489 36.2703 306.138 35.2525 306.3 34.2494C306.46 33.2566 306.144 32.2646 305.11 31.4837L305.103 31.4778L305.103 31.4776C304.307 30.7909 303.309 30.2158 302.263 29.6332C302.17 29.5812 302.076 29.5292 301.982 29.477C301.028 28.9471 300.047 28.403 299.18 27.7609L299.17 27.7542L299.171 27.7539C297.275 26.1173 295.644 24.2425 294.554 22.1282M296.033 40.4406C296.265 40.386 296.5 40.3315 296.737 40.2764C299.539 39.6262 302.673 38.8987 304.662 37.1823C306.549 35.5532 307.358 32.9932 305.201 31.364C304.32 30.6036 303.199 29.9812 302.056 29.3465C301.1 28.8157 300.128 28.2763 299.269 27.6403C297.381 26.0112 295.763 24.1493 294.685 22.0547M294.554 22.1282C294.555 22.1297 294.556 22.1313 294.557 22.1328L294.685 22.0547M294.554 22.1282C293.545 20.4723 292.76 18.6835 291.98 16.9087C291.715 16.3043 291.451 15.7015 291.178 15.1061C290.102 12.7542 288.898 10.5061 287.031 8.66437C285.703 7.40365 283.505 6.19677 281.346 5.82401C279.189 5.45173 277.11 5.91377 275.94 7.93325C275.364 8.9272 274.223 9.34714 273.11 9.31712C271.998 9.28715 270.866 8.80797 270.292 7.94086L270.289 7.93653C269.125 6.03799 266.917 5.68139 264.505 5.99945C262.101 6.3164 259.559 7.29689 257.805 7.99554C252.954 10.3212 248.06 12.4377 242.345 11.2633C241.186 11.0279 239.928 10.5727 238.662 10.108L238.517 10.0546C237.294 9.60554 236.065 9.1542 234.892 8.87678C233.671 8.58823 232.53 8.49256 231.533 8.77336C230.544 9.05202 229.683 9.7061 229.026 10.9535L229.025 10.9554C228.776 11.4122 228.537 11.8604 228.303 12.2999C226.517 15.6549 225.002 18.5013 221.15 20.7873L221.146 20.7896C217.348 22.8968 212.734 24.0692 208.116 23.6004C205.799 23.3897 203.7 22.4723 201.649 21.5762C201.407 21.4706 201.166 21.3653 200.926 21.2615C198.634 20.2726 196.374 19.4153 193.854 19.644C191.645 19.8752 189.533 20.439 187.46 21.0959C186.622 21.3614 185.787 21.6434 184.955 21.9245C183.736 22.3362 182.522 22.7462 181.31 23.1005C177.883 24.103 174.413 24.6807 170.656 23.6683M294.554 22.1282C294.553 22.1266 294.552 22.125 294.552 22.1234L294.685 22.0547M294.685 22.0547C293.68 20.4069 292.9 18.6298 292.121 16.8559C290.81 13.8696 289.503 10.8923 287.135 8.55626C284.439 5.9962 278.237 3.66888 275.81 7.85806C274.732 9.71992 271.496 9.48719 270.417 7.85806C267.991 3.90161 261.25 6.46166 257.744 7.85806C252.891 10.1854 248.037 12.28 242.375 11.1163C241.184 10.8745 239.884 10.3971 238.565 9.91257C234.806 8.53192 230.889 7.09352 228.893 10.8836C228.643 11.3418 228.404 11.7906 228.17 12.2301C226.384 15.5853 224.888 18.3948 221.073 20.6583C217.299 22.7529 212.715 23.9166 208.131 23.4511C205.839 23.2429 203.762 22.3357 201.709 21.4385C199.172 20.3304 196.671 19.2375 193.84 19.4947C190.711 19.822 187.782 20.8112 184.901 21.7843C180.292 23.3411 175.804 24.8567 170.815 23.5552C170.762 23.5928 170.709 23.6304 170.656 23.6683M303.627 64.7816C308.209 64.0881 313.01 63.8283 317.38 65.1998C318.135 65.437 318.853 65.7917 319.551 66.1751C319.848 66.3379 320.137 66.504 320.425 66.6689C320.822 66.8968 321.216 67.1225 321.618 67.3339C322.99 68.0563 324.366 68.5592 325.93 68.2222C327.009 67.9681 328.014 67.6529 329.005 67.3419C329.371 67.2273 329.734 67.1133 330.099 67.0031C331.45 66.5949 332.81 66.2422 334.309 66.1244M303.627 64.7816C304.665 58.1536 303.647 51.4364 300.776 45.3258C303.163 44.5238 305.519 43.5142 307.476 42.1941C310.434 40.1984 312.499 37.4791 312.361 33.6859L312.362 33.6859L312.361 33.678C312.085 30.5796 309.875 28.4505 307.166 26.8137L307.165 26.8134C303.669 24.7241 301 22.6466 299.131 19.1906L299.13 19.189C298.383 17.8448 297.707 16.4003 297.017 14.9254C296.964 14.8105 296.91 14.6953 296.856 14.5801C296.11 12.9875 295.341 11.3675 294.444 9.81928C292.649 6.72135 290.338 3.90096 286.661 2.1376C283.799 0.726225 280.329 0.315828 277.198 0.903208C275.524 1.21728 273.942 1.81788 272.602 2.70763C271.068 1.70889 269.218 1.14972 267.266 0.930663C263.868 0.549399 260.136 1.19425 257.151 2.36515C256.071 2.77311 254.992 3.26778 253.91 3.76373L253.899 3.76888C252.811 4.26743 251.72 4.7671 250.613 5.18684C248.4 6.02613 246.139 6.53955 243.751 6.08159L243.749 6.08112C242.105 5.79744 240.553 5.28208 239.005 4.76805C238.661 4.65378 238.317 4.53958 237.972 4.428C236.082 3.81636 234.176 3.28614 232.129 3.28614C229.741 3.28614 227.974 3.90525 226.569 4.89539C225.168 5.88309 224.136 7.23347 223.206 8.67871C222.848 9.23474 222.507 9.80141 222.166 10.3678C221.614 11.2844 221.063 12.2002 220.442 13.0691C219.443 14.4656 218.279 15.7109 216.69 16.5688C213.486 18.1813 209.754 18.6395 206.293 17.4913C205.356 17.1446 204.452 16.7691 203.553 16.3957L203.545 16.3925C202.644 16.0181 201.748 15.646 200.835 15.3102C199.007 14.6381 197.104 14.1095 194.927 13.9921V13.9918H194.918C191.239 13.9918 187.561 15.1397 184.108 16.2174C183.739 16.3324 183.373 16.4466 183.01 16.5585L183.007 16.5595C182.599 16.695 182.182 16.8393 181.757 16.9861C180.347 17.4737 178.855 17.9893 177.361 18.3005C175.422 18.7047 173.505 18.7571 171.796 17.9636C170.386 17.2351 168.979 17.4877 167.6 18.4403L167.599 18.4405C155.142 27.0889 150.819 41.1075 149.739 54.3924L149.739 54.3943C149.469 58.3562 149.469 62.3172 149.469 66.2722V66.2739C149.469 66.9897 149.469 67.7377 149.454 68.4924C149.289 67.5499 149.124 66.5534 148.959 65.5558L148.958 65.5512L148.958 65.5512L148.957 65.5438C148.144 61.8003 146.517 58.0567 144.077 54.7804L144.075 54.7772C139.46 48.9203 131.844 45.6243 123.95 48.9114C123.409 49.0988 122.782 49.3965 122.147 49.6982C121.981 49.7772 121.814 49.8564 121.648 49.934C120.842 50.3107 120.056 50.6489 119.407 50.7635C118.648 50.7599 118.008 50.4324 117.34 50.0288C117.238 49.9669 117.134 49.9032 117.03 49.8387C116.46 49.4865 115.855 49.1125 115.153 48.9093C112.657 47.9549 110.175 48.9197 108.266 50.5673C108.049 50.755 107.769 51.1198 107.456 51.5405C107.394 51.6242 107.33 51.7105 107.265 51.7989C106.997 52.1622 106.704 52.5594 106.394 52.943C106.009 53.4202 105.603 53.8688 105.199 54.1971C104.815 54.5083 104.449 54.6967 104.113 54.718C104.079 54.6719 104.036 54.596 103.99 54.4878C103.931 54.3472 103.874 54.1725 103.824 53.9876C103.725 53.6147 103.661 53.2219 103.661 53.0081V52.9938L103.658 52.9797L103.657 52.9741C103.388 51.5813 103.116 50.1738 102.572 48.7649L102.572 48.7649L102.57 48.7592C101.334 45.9154 98.7305 44.0297 95.7008 43.1188C92.6714 42.2081 89.2011 42.2665 86.2045 43.3245C82.1194 44.7351 79.4008 47.5548 77.2354 50.5914C77.0184 50.8726 76.8013 51.1908 76.6013 51.517C76.4444 51.1681 76.2816 50.8544 76.1375 50.6056L76.136 50.6032C74.4891 47.8786 71.3422 46.1731 68.0068 45.7031C64.6715 45.2331 61.1185 45.9944 58.6512 48.2413C57.8779 48.9095 57.5856 49.6966 57.6534 50.4613C57.7207 51.2204 58.1406 51.9373 58.7523 52.4803C59.9746 53.5655 62.011 53.9946 63.6974 52.6603L63.6974 52.6604L63.7023 52.6562C64.4746 51.9896 65.5791 51.7048 66.6636 51.7615C67.748 51.8183 68.7856 52.215 69.4266 52.8777C70.2225 53.7621 70.4719 54.8143 70.7273 55.8923C70.7642 56.048 70.8012 56.2043 70.8401 56.3607C71.1457 57.5918 71.5627 58.8063 72.9641 59.653C75.743 61.332 79.0555 60.1235 80.9726 57.9959L80.9784 57.9896L80.9833 57.9826C81.5277 57.2191 81.986 56.4276 82.4207 55.6407C82.5373 55.4298 82.6519 55.2195 82.7661 55.0102C83.079 54.4365 83.3878 53.8701 83.7198 53.3182C84.6235 51.816 85.6865 50.4428 87.4095 49.4132L87.4095 49.4133L87.414 49.4103C88.4666 48.729 89.9891 48.2703 91.5147 48.2416C93.0389 48.213 94.543 48.6136 95.5832 49.6213C96.4942 50.6345 96.8253 51.9334 97.0946 53.299C97.1277 53.4668 97.1598 53.6357 97.1921 53.8053C97.4202 55.0034 97.6535 56.2291 98.2579 57.2725L98.2576 57.2727L98.264 57.2821C99.1554 58.5841 100.207 59.4052 101.342 59.8428C102.476 60.2801 103.685 60.3307 104.886 60.1085C107.283 59.6652 109.667 58.1338 111.432 56.3764C111.74 56.1098 112.013 55.7747 112.281 55.4469C112.373 55.3336 112.465 55.2211 112.557 55.1126C112.779 54.8511 113.008 54.607 113.266 54.4066C113.495 54.5878 113.721 54.7346 113.942 54.8775L113.945 54.8796C114.216 55.0546 114.477 55.224 114.738 55.449L114.749 55.4584L114.761 55.4655C118.065 57.3669 121.639 56.1708 124.863 55.0112L124.864 55.0107C126.754 54.3117 128.42 53.7379 130.047 53.6232C131.666 53.5092 133.251 53.8497 134.976 54.995L134.976 54.995L134.98 54.9977C138.708 57.296 140.581 61.2089 141.656 64.9192L141.655 64.9193L141.657 64.9235C141.972 65.9038 142.184 67.0407 142.406 68.2352C142.419 68.3032 142.431 68.3713 142.444 68.4396C142.68 69.7042 142.934 71.0229 143.342 72.2557C143.751 73.4892 144.316 74.6454 145.178 75.5829C146.042 76.5224 147.198 77.2357 148.777 77.5913C150.558 78.0052 151.932 77.787 152.983 77.1478C154.032 76.5105 154.74 75.4675 155.219 74.2717C156.174 71.8849 156.24 68.8317 156.24 66.9721C156.24 59.4062 156.309 50.8713 158.292 42.979C160.172 35.4988 163.77 28.6056 170.656 23.6683M334.309 66.1244C334.309 66.1244 334.31 66.1244 334.31 66.1244L334.322 66.2739M334.309 66.1244C334.308 66.1245 334.308 66.1245 334.308 66.1246L334.322 66.2739M334.322 66.2739C332.441 66.4215 330.777 66.9435 329.055 67.4837C328.061 67.7953 327.048 68.1131 325.963 68.3685L348.343 78.6087C348.073 77.6778 347.534 76.7469 346.725 75.8159C346.25 75.2689 345.588 74.8826 344.959 74.5153C344.518 74.2576 344.093 74.0092 343.759 73.7213C343.223 73.2584 343.161 72.4886 343.101 71.7511C343.071 71.3761 343.041 71.0095 342.95 70.6958C342.681 69.7649 342.141 68.8339 341.332 68.1357C339.445 66.5066 336.749 66.0412 334.322 66.2739Z" fill="white" stroke="white" stroke-width="0.3"/>
<path d="M58.2922 42.8733C59.1321 43.3583 59.6864 44.0824 60.2293 45.0197C60.369 45.2608 60.5078 45.5604 60.612 45.8602C60.7076 46.1351 60.7775 46.42 60.7876 46.6646C61.2089 46.5848 61.6613 46.5771 62.1069 46.6334C62.8188 46.7233 63.5264 46.9783 64.0768 47.3811C64.6282 47.7847 65.0293 48.3432 65.1022 49.0356L65.1039 49.0513L65.1022 49.067C64.9624 50.3942 64.2614 51.4252 63.2434 52.0312C62.2274 52.636 60.9046 52.8126 59.5227 52.4548L59.5112 52.4518L59.5113 52.4514C58.1422 51.9787 57.0401 51.2671 56.2114 50.3134L56.202 50.3026L56.1948 50.2902C56.0521 50.0438 55.9132 49.6821 55.7789 49.3053C55.733 49.1766 55.6875 49.0459 55.6424 48.9159C55.5536 48.6606 55.4659 48.4081 55.3775 48.1789C55.2455 47.8931 55.187 47.6773 55.1698 47.5166C55.1253 47.5333 55.0749 47.5499 55.0179 47.5663L55.01 47.5686L55.0019 47.57C54.3697 47.6791 53.7231 48.1203 53.0462 48.6461C52.9147 48.7482 52.7822 48.8535 52.6489 48.9594C52.1087 49.3885 51.5544 49.8288 51.0008 50.1154C49.65 50.815 48.0045 51.5286 46.348 51.5286C44.9653 51.5286 43.6623 51.3136 42.4892 50.896C41.1608 53.0417 39.1787 54.8218 36.4293 55.9389C35.0287 56.5427 33.4877 56.2417 32.5026 55.4521C32.0086 55.0562 31.6491 54.533 31.5227 53.9333C31.3961 53.332 31.507 52.6679 31.9286 51.9993C31.9701 51.9265 31.9664 51.8723 31.9386 51.8185C31.9045 51.7525 31.8266 51.6756 31.6926 51.594C31.4267 51.432 31.0073 51.2909 30.5382 51.1752C29.6028 50.9445 28.5366 50.8304 28.2822 50.8304C27.4264 50.8304 26.5718 50.9042 25.7096 50.9786C25.4931 50.9973 25.2762 51.016 25.0586 51.0336C23.9797 51.1209 22.8905 51.1802 21.7982 51.0627C17.9727 50.8258 15.2422 48.9359 13.0677 46.3552L13.0636 46.3503L13.0637 46.3502C12.8545 46.0794 12.6566 45.8106 12.4622 45.5466C11.6412 44.4314 10.8833 43.402 9.60225 42.6648C8.81403 42.2113 7.8215 41.9242 6.77954 41.6921C6.32835 41.5916 5.87088 41.502 5.41859 41.4134C5.34952 41.3999 5.28055 41.3864 5.21175 41.3729C4.6936 41.2711 4.18484 41.1686 3.70909 41.0513L3.7081 41.0511C-0.870697 39.8887 -5.71976 38.9586 -10.5741 38.0275L-10.5747 38.0274C-28.3633 34.5379 -46.4207 32.4443 -64.4775 31.9791L-64.4781 31.979C-72.2942 31.7464 -80.3761 31.7465 -88.4564 32.4438C-91.4182 32.7925 -94.6417 33.3148 -97.5931 34.2701C-100.546 35.2259 -103.215 36.6115 -105.078 38.6788L-105.08 38.6812C-105.945 39.6005 -106.647 40.6516 -107.306 41.7502C-107.566 42.1827 -107.82 42.6251 -108.076 43.0696C-108.466 43.747 -108.858 44.4292 -109.276 45.0878C-110.666 47.2827 -112.374 49.2928 -115.385 50.3562C-118.674 51.5389 -121.686 50.3568 -124.637 49.1994L-124.658 49.1909C-126.121 48.6171 -127.069 48.6932 -127.716 49.1719C-128.376 49.6601 -128.772 50.5993 -129.04 51.875L-129.041 51.878C-129.707 54.7542 -129.376 57.9859 -128.57 61.1748C-127.764 64.3622 -126.487 67.4948 -125.275 70.168L-125.274 70.1708C-122.589 76.4283 -118.022 81.9963 -112.641 86.6404C-111.778 87.3852 -111.571 88.5569 -111.888 89.5907C-112.206 90.6269 -113.055 91.5443 -114.329 91.7887C-114.612 91.8429 -114.806 91.942 -114.938 92.066C-115.069 92.1892 -115.148 92.3461 -115.183 92.5343C-115.255 92.9199 -115.142 93.4246 -114.925 93.9716C-114.594 94.8072 -114.051 95.6708 -113.689 96.2466C-113.579 96.4217 -113.486 96.5702 -113.42 96.6832C-112.066 98.7876 -110.976 101.136 -110.703 103.727C-110.158 108.192 -111.521 112.44 -115.619 115.27C-117.259 116.45 -119.171 117.156 -121.351 117.391L-121.359 117.392H-121.368C-121.913 117.392 -122.495 117.339 -123.068 117.287C-123.351 117.261 -123.632 117.236 -123.906 117.217C-124.747 117.159 -125.529 117.162 -126.172 117.384L-126.184 117.388L-126.195 117.39C-126.821 117.498 -127.4 117.934 -127.934 118.481C-128.28 118.837 -128.593 119.221 -128.883 119.579C-129.043 119.775 -129.196 119.963 -129.343 120.133L-129.346 120.136C-133.392 124.559 -137.707 128.982 -142.021 133.403C-146.066 137.827 -150.381 142.249 -154.695 146.67L-154.695 146.671L-154.698 146.673C-155.295 147.258 -155.898 147.842 -156.502 148.427C-159.994 151.809 -163.526 155.231 -166.276 158.99C-169.886 163.952 -170.423 169.26 -169.418 174.524C-168.412 179.794 -165.861 185.012 -163.3 189.781C-162.462 191.23 -162.727 193.205 -164.45 193.949C-167.192 195.132 -169.39 194.891 -172.109 193.953L-172.119 193.949L-172.119 193.949C-172.24 193.896 -172.424 193.8 -172.638 193.688C-172.674 193.67 -172.711 193.651 -172.748 193.631C-173.013 193.493 -173.322 193.335 -173.638 193.191C-173.955 193.047 -174.275 192.92 -174.563 192.843C-174.856 192.765 -175.092 192.745 -175.254 192.791L-175.264 192.794L-175.264 192.794C-175.484 192.841 -175.709 193.013 -175.938 193.292C-176.164 193.567 -176.377 193.927 -176.578 194.316C-176.77 194.689 -176.947 195.082 -177.11 195.446L-177.13 195.491C-177.297 195.862 -177.452 196.204 -177.591 196.444C-178.913 198.889 -180.202 201.307 -181.482 203.706C-183.853 208.152 -186.192 212.536 -188.643 216.918C-188.831 217.351 -189.09 217.807 -189.353 218.27C-189.378 218.313 -189.402 218.355 -189.426 218.398C-189.717 218.911 -190.007 219.434 -190.222 219.963C-190.651 221.016 -190.769 222.057 -190.007 223.043C-189.485 223.719 -188.696 224.289 -187.821 224.841C-187.534 225.022 -187.238 225.201 -186.939 225.381C-186.337 225.745 -185.728 226.113 -185.184 226.504L-185.183 226.505C-183.434 227.783 -181.751 229.003 -180.068 230.223L-180.061 230.228L-180.059 230.23C-178.374 231.451 -176.69 232.672 -174.938 233.952C-174.938 233.952 -174.937 233.952 -174.937 233.952L-175.026 234.074C-174.591 234.381 -173.965 234.878 -173.202 235.483C-168.761 239.01 -159.682 246.22 -156.69 241.056L58.2922 42.8733ZM58.2922 42.8733C56.9064 41.9186 55.25 41.6845 53.6069 41.9209L53.6068 41.9203L53.5939 41.9233C52.8274 42.1038 51.9328 42.581 51.0035 43.1254C50.731 43.285 50.4551 43.4507 50.1775 43.6174C49.4998 44.0243 48.8111 44.4379 48.1331 44.7869C47.1762 45.2796 46.2663 45.6295 45.4719 45.6504C45.0777 45.6607 44.7155 45.5899 44.39 45.4177C44.0651 45.2459 43.768 44.9684 43.5105 44.552C43.2179 44.0485 42.713 43.6962 42.1313 43.4848C41.5481 43.2728 40.8768 43.1982 40.2335 43.2582C38.9647 43.3766 37.7225 44.036 37.5714 45.3033C37.3583 46.3117 37.0189 47.2045 36.5047 47.9856C36.2483 47.746 35.9639 47.5174 35.6517 47.3015C32.3663 44.7045 28.5383 44.7127 24.4901 45.1786L24.4888 45.1787C22.6023 45.4113 20.767 45.4021 19.4693 44.506C18.8159 44.0548 18.2886 43.4311 17.7848 42.7644C17.6539 42.5911 17.5242 42.4144 17.3942 42.2372C17.0297 41.7404 16.6629 41.2406 16.2612 40.8067C13.6848 37.6958 10.1353 36.6827 6.35869 35.6047C6.13121 35.5397 5.90291 35.4746 5.67397 35.4086L5.67024 35.4077C-14.0237 30.2849 -34.2565 27.258 -54.7582 26.0938L-54.7597 26.0937C-64.7386 25.6281 -74.9886 25.3953 -84.9697 25.6281L-84.971 25.6281C-92.2594 25.8611 -100.107 27.0259 -106.341 30.5343C-109.327 32.1746 -111.771 34.5178 -113.403 37.0978C-113.747 37.5743 -114.071 38.1941 -114.399 38.8613C-114.496 39.0584 -114.593 39.2596 -114.691 39.4631C-114.928 39.9548 -115.172 40.4598 -115.433 40.9517C-116.175 42.3496 -117.03 43.5805 -118.186 44.0239L-118.186 44.0238L-118.191 44.0262C-118.958 44.3572 -119.661 44.3041 -120.343 44.0796C-120.873 43.9054 -121.381 43.6324 -121.897 43.3545C-122.056 43.2692 -122.216 43.1834 -122.377 43.0998L-122.377 43.0995L-122.387 43.0953C-124.02 42.3904 -125.928 41.9193 -127.839 41.9193V41.919L-127.85 41.9197C-131.136 42.1561 -133.876 44.0464 -135.249 46.4161C-137.16 49.7144 -137.427 53.6506 -136.919 57.5653C-136.412 61.481 -135.126 65.3921 -133.911 68.6532L-133.911 68.6532L-133.91 68.6562C-131.093 75.7489 -126.645 82.3126 -120.746 87.8895C-121.747 89.114 -122.326 90.6081 -122.326 92.1068C-122.326 94.246 -121.362 96.0811 -120.317 97.8558C-120.193 98.0673 -120.067 98.2778 -119.942 98.4879C-119.009 100.052 -118.091 101.591 -117.74 103.308L-117.74 103.308L-117.738 103.315C-117.207 105.376 -117.478 107.643 -119.047 109.223C-119.963 110.127 -120.875 110.464 -121.861 110.606C-122.357 110.677 -122.872 110.699 -123.42 110.717C-123.472 110.719 -123.524 110.721 -123.577 110.722C-124.074 110.739 -124.598 110.756 -125.15 110.808C-127.885 110.81 -129.937 111.816 -131.707 113.226C-132.918 114.191 -134.006 115.354 -135.089 116.511C-135.581 117.037 -136.072 117.562 -136.574 118.067L-136.574 118.068C-140.35 121.908 -144.125 125.807 -147.9 129.705C-151.675 133.603 -155.449 137.501 -159.224 141.341L-159.226 141.343C-160.411 142.588 -161.68 143.847 -162.971 145.127C-165.044 147.183 -167.174 149.295 -169.105 151.5C-172.245 155.085 -174.893 158.946 -175.98 163.285C-178.173 171.426 -175.4 179.559 -171.696 187.166C-171.714 187.16 -171.732 187.155 -171.749 187.15L-171.769 187.144H-171.79C-172.545 187.144 -173.255 187.069 -173.966 186.994C-174.134 186.976 -174.303 186.958 -174.472 186.941C-175.35 186.854 -176.24 186.794 -177.201 186.913L-177.201 186.912L-177.213 186.915C-179.559 187.391 -181.072 188.882 -182.196 190.647C-182.758 191.528 -183.225 192.481 -183.652 193.414C-183.796 193.729 -183.935 194.042 -184.071 194.348C-184.341 194.952 -184.6 195.533 -184.867 196.072C-186.079 198.513 -187.359 200.896 -188.64 203.282L-188.641 203.284C-189.921 205.668 -191.202 208.054 -192.416 210.499C-192.818 211.243 -193.307 212.041 -193.822 212.881C-193.907 213.019 -193.993 213.159 -194.079 213.3C-194.686 214.293 -195.312 215.338 -195.854 216.405C-196.936 218.536 -197.698 220.785 -197.283 222.931C-196.867 225.085 -195.073 226.918 -192.98 228.52C-191.931 229.324 -190.797 230.075 -189.71 230.785C-189.563 230.881 -189.417 230.976 -189.272 231.07C-188.343 231.675 -187.463 232.247 -186.709 232.798L-186.707 232.799C-184.416 234.428 -182.125 236.114 -179.833 237.802C-177.542 239.489 -175.249 241.177 -172.956 242.807C-172.874 242.865 -172.793 242.924 -172.711 242.983C-169.536 245.269 -165.8 247.958 -161.282 248.187L58.2922 42.8733Z" fill="white" stroke="white" stroke-width="0.3"/>
<path d="M-67.4112 254.701L-67.4017 254.698L-67.3926 254.695C-62.8148 253.068 -58.7834 251.909 -53.6777 251.445L-53.6761 251.445C-51.8595 251.26 -50.0859 251.149 -48.3178 251.038C-47.8585 251.01 -47.3996 250.981 -46.9405 250.951C-44.7151 250.805 -42.4854 250.63 -40.187 250.28C-32.3649 249.116 -24.477 246.549 -20.9339 240.198L-20.9338 240.198L-20.9306 240.191C-20.7268 239.781 -20.5402 239.356 -20.3553 238.935L-20.3546 238.934C-20.169 238.512 -19.985 238.093 -19.7846 237.689C-19.3837 236.882 -18.9225 236.146 -18.2705 235.583L-18.2702 235.584L-18.2621 235.576C-17.4915 234.8 -16.5252 234.572 -15.4618 234.514C-15.0056 234.49 -14.5372 234.497 -14.0609 234.504C-13.9809 234.505 -13.9007 234.506 -13.8203 234.507C-13.2667 234.514 -12.7053 234.515 -12.1588 234.456C-10.25 234.455 -8.3394 233.984 -6.69923 233.04L-6.6992 233.04L-6.69532 233.037C-5.77861 232.472 -5.11157 231.693 -4.47388 230.949C-4.43861 230.908 -4.40342 230.867 -4.36829 230.826C-3.69275 230.038 -3.03657 229.305 -2.12383 228.855C-1.20178 228.4 -0.142151 228.17 0.963821 228.026C1.61433 227.941 2.2679 227.886 2.91699 227.832C3.37972 227.794 3.84019 227.755 4.29565 227.706C7.00089 227.473 9.43505 227.006 12.1361 226.306C13.1292 226.081 14.1103 225.838 15.0855 225.597C19.1592 224.591 23.1313 223.609 27.4572 223.983L27.4613 223.983C33.3626 224.33 38.5312 226.414 43.4438 228.999C45.5423 230.103 47.5917 231.297 49.6318 232.486C49.9802 232.689 50.3283 232.892 50.6764 233.094C53.0612 234.48 55.4419 235.835 57.8745 237.001L57.8744 237.002L57.8799 237.004C59.02 237.496 60.1017 237.129 60.683 236.439C60.9733 236.095 61.1413 235.666 61.1226 235.224C61.1039 234.779 60.8978 234.336 60.4673 233.963C53.7086 227.43 43.979 221.831 33.9743 219.73C29.1034 218.563 24.2315 218.329 19.3596 219.03L19.3596 219.03L19.3577 219.03C17.0343 219.395 14.8331 219.938 12.6501 220.476C12.039 220.627 11.4293 220.778 10.8187 220.924C8.02382 221.592 5.20415 222.171 2.11841 222.287L2.11723 222.287C-0.456871 222.404 -2.43208 222.814 -4.17371 223.61C-5.91475 224.405 -7.4121 225.582 -9.03654 227.217C-10.0931 228.243 -11.0089 228.636 -12.023 228.805C-12.535 228.891 -13.0742 228.92 -13.6763 228.942C-13.7855 228.946 -13.8967 228.949 -14.0101 228.953C-14.5184 228.97 -15.0704 228.989 -15.678 229.036C-17.8539 229.037 -19.7719 229.507 -21.4198 230.692C-23.2034 231.877 -24.2287 233.534 -25.173 235.222C-25.2778 235.409 -25.3816 235.597 -25.4853 235.785C-26.32 237.294 -27.1474 238.791 -28.448 240.015L-28.4481 240.015L-28.4523 240.019C-31.3824 243.008 -35.6522 244.166 -39.9682 245.097C-42.3184 245.503 -44.9055 245.706 -47.5764 245.902C-47.7414 245.914 -47.9067 245.927 -48.0723 245.939C-50.5858 246.123 -53.1634 246.311 -55.6672 246.667C-60.9984 247.424 -66.0293 248.942 -69.4363 252.818C-69.7266 253.072 -69.8445 253.353 -69.7893 253.634C-69.7361 253.904 -69.5302 254.13 -69.2797 254.3C-69.0255 254.472 -68.7039 254.602 -68.3769 254.675C-68.0504 254.747 -67.7075 254.764 -67.4112 254.701Z" fill="white" stroke="white" stroke-width="0.3"/>
</svg>
