<svg width="22" height="19" viewBox="0 0 22 19" fill="none" xmlns="http://www.w3.org/2000/svg">
<path d="M21.2071 0.455262C21.0909 0.35492 20.9495 0.288186 20.7982 0.262249C20.6469 0.236313 20.4914 0.252157 20.3484 0.308075L1.349 7.74339C1.07974 7.84809 0.851774 8.03743 0.699431 8.28291C0.547088 8.52838 0.478611 8.8167 0.504309 9.10446C0.530008 9.39222 0.648491 9.66385 0.84192 9.87844C1.03535 10.093 1.29326 10.239 1.57681 10.2943L6.49963 11.2609V16.75C6.49866 17.0489 6.58751 17.3413 6.75467 17.5892C6.92182 17.8371 7.15958 18.0291 7.43713 18.1403C7.71424 18.2534 8.019 18.2806 8.31176 18.2182C8.60452 18.1559 8.87175 18.0068 9.07869 17.7906L11.4524 15.3287L15.2184 18.625C15.4901 18.866 15.8405 18.9993 16.2037 19C16.3628 18.9998 16.521 18.9748 16.6724 18.9259C16.9199 18.8474 17.1425 18.7054 17.318 18.5141C17.4935 18.3228 17.6158 18.0889 17.6728 17.8356L21.4781 1.2812C21.5121 1.1319 21.5049 0.976156 21.4571 0.830657C21.4094 0.685157 21.323 0.555389 21.2071 0.455262ZM15.4753 3.83026L7.07619 9.84526L2.42619 8.93307L15.4753 3.83026ZM7.99963 16.75V12.2987L10.3237 14.3368L7.99963 16.75ZM16.2056 17.5L8.45431 10.7031L19.6106 2.70714L16.2056 17.5Z" fill="white"/>
</svg>
